<svg xmlns="http://www.w3.org/2000/svg" viewBox="0 0 2500 1232"><filter id="b"><feGaussianBlur stdDeviation="12" /></filter><path fill="#4d4a4a" d="M0 0h2500v1230H0z"/><g filter="url(#b)" transform="translate(4.9 4.9) scale(9.76563)" fill-opacity=".5"><ellipse fill="#e2ffff" rx="1" ry="1" transform="matrix(135.18396 -20.92758 3.22001 20.8 127.3 85.6)"/><ellipse fill="#020000" rx="1" ry="1" transform="matrix(3.2968 36.67459 -253.9759 22.83068 95.4 27.2)"/><ellipse fill="#ffce98" cx="122" cy="80" rx="32" ry="44"/><ellipse rx="1" ry="1" transform="matrix(28.39112 28.99206 -36.67748 35.91725 26 45.7)"/><ellipse fill="#dfffff" rx="1" ry="1" transform="matrix(1.90363 8.87966 -97.85897 20.97915 103.7 81.3)"/><ellipse fill="#223d71" rx="1" ry="1" transform="matrix(78.30207 -8.30713 3.25556 30.68658 214.6 101)"/><ellipse rx="1" ry="1" transform="rotate(-166.3 104 -2.6) scale(76.59456 31.35307)"/><path fill="#b14600" d="M162.9 54.3L84.6 70.9l-7.5-35.2 78.3-16.6z"/></g></svg>