<svg xmlns="http://www.w3.org/2000/svg" viewBox="0 0 1920 1080"><filter id="b"><feGaussianBlur stdDeviation="12" /></filter><path fill="#1c2d39" d="M0 0h1920v1080H0z"/><g filter="url(#b)" transform="matrix(7.5 0 0 7.5 3.8 3.8)" fill-opacity=".5"><ellipse fill="#3e7397" rx="1" ry="1" transform="rotate(163.5 78 42.3) scale(22.58717 44.87188)"/><ellipse fill="#26dcfb" rx="1" ry="1" transform="matrix(6.0016 3.24285 -14.06604 26.03225 60 13.2)"/><ellipse fill="#080000" rx="1" ry="1" transform="matrix(-25.87856 -230.47715 43.05024 -4.83379 0 97.2)"/><path fill="#1cc9eb" d="M216.4-1.9l21.4 60.7-42.5-64.6 36.3 3.4z"/><ellipse fill="#2e4664" cx="123" cy="68" rx="56" ry="56"/><ellipse fill="#100a06" rx="1" ry="1" transform="matrix(-205.09884 86.42749 -10.5931 -25.1382 221.5 130.1)"/><path fill="#5cbae0" d="M171 113l6-75 11 31z"/><ellipse fill="#0b0804" rx="1" ry="1" transform="matrix(4.46166 -23.16908 80.63433 15.52772 62.5 140.1)"/></g></svg>