<svg xmlns="http://www.w3.org/2000/svg" viewBox="0 0 2500 1667"><filter id="c"><feGaussianBlur stdDeviation="55" /></filter><path fill="#404a69" d="M0 0h2500v1660H0z"/><g filter='url(#c)' fill-opacity='.5'><ellipse fill="#998999" fill-opacity=".5" rx="1" ry="1" transform="matrix(1453.34037 0 0 643.33764 1029.7 4.9)"/><ellipse fill="#02254b" fill-opacity=".5" rx="1" ry="1" transform="matrix(-14.52477 -608.33464 2489.52487 -59.44058 1367.5 1414)"/><ellipse fill="#ae6c6e" fill-opacity=".5" rx="1" ry="1" transform="matrix(-26.10999 184.67919 -616.712 -87.1909 1008 457.5)"/><ellipse fill="#4b5670" fill-opacity=".5" rx="1" ry="1" transform="matrix(-9.11565 -117.51626 973.5794 -75.51988 661 1090.8)"/><ellipse fill="#407096" fill-opacity=".5" rx="1" ry="1" transform="matrix(-11.9554 129.75767 -1735.81223 -159.93142 955.5 89.9)"/><path fill="#7c5165" fill-opacity=".5" d="M488.2 1387.9l932.5 215.3-24.1 104.6L464 1492.5z"/><ellipse fill="#002248" fill-opacity=".5" rx="1" ry="1" transform="matrix(1137.45177 198.162 -21.0939 121.0792 1775.8 1488.5)"/><ellipse fill="#62506f" fill-opacity=".5" rx="1" ry="1" transform="rotate(75.4 519 1415.4) scale(169.35457 970.38743)"/></g></svg>