<svg xmlns="http://www.w3.org/2000/svg" viewBox="0 0 2500 1302"><filter id="b"><feGaussianBlur stdDeviation="12" /></filter><path fill="#5d5758" d="M0 0h2500v1298H0z"/><g filter="url(#b)" transform="translate(4.9 4.9) scale(9.76563)" fill-opacity=".5"><ellipse fill="#fff" rx="1" ry="1" transform="matrix(3.25502 -33.8504 123.67085 11.89207 102.6 24.5)"/><ellipse rx="1" ry="1" transform="rotate(86.7 12.9 129.4) scale(44.74018 254.99998)"/><ellipse fill="#ffeccc" rx="1" ry="1" transform="matrix(-3.70599 26.55818 -85.55835 -11.93901 93.6 28.6)"/><ellipse rx="1" ry="1" transform="rotate(173.9 52.7 63.6) scale(255 42.97699)"/><ellipse fill="#8e8ba0" rx="1" ry="1" transform="rotate(104.8 102.9 98.5) scale(33.55412 64.98123)"/><ellipse fill="#c8a07f" rx="1" ry="1" transform="matrix(4.06627 17.0405 -43.6835 10.42393 155 54.6)"/><ellipse fill="#25273c" cx="33" cy="61" rx="41" ry="20"/><ellipse fill="#04040c" rx="1" ry="1" transform="matrix(5.66548 -34.59704 204.9838 33.56739 70.4 108.4)"/></g></svg>