<svg xmlns="http://www.w3.org/2000/svg" viewBox="0 0 2500 1667"><filter id="b"><feGaussianBlur stdDeviation="12" /></filter><path fill="#305c86" d="M0 0h2500v1660H0z"/><g filter="url(#b)" transform="translate(4.9 4.9) scale(9.76563)" fill-opacity=".5"><ellipse fill="#a88282" rx="1" ry="1" transform="matrix(41.3144 31.13264 -14.7948 19.63337 126.3 136)"/><ellipse fill="#005277" cx="230" cy="111" rx="70" ry="70"/><ellipse fill="#6e68a6" rx="1" ry="1" transform="matrix(186.24388 9.88688 -2.24408 42.27284 131.9 0)"/><ellipse fill="#004f88" rx="1" ry="1" transform="matrix(-68.88305 57.50011 -27.96099 -33.49625 14.5 98.5)"/><ellipse fill="#6b5152" rx="1" ry="1" transform="rotate(30.1 -274.6 229.8) scale(53.43029 45.12078)"/><path fill="#0f2f17" d="M58.7 168.8l51.2-22.2 18.1 4-18.7 34.4z"/><ellipse fill="#7f6781" rx="1" ry="1" transform="rotate(35.1 -131.4 228.5) scale(12.25829 52.88396)"/><ellipse fill="#006176" cx="224" cy="137" rx="55" ry="55"/></g></svg>