<svg xmlns="http://www.w3.org/2000/svg" viewBox="0 0 2500 1667"><filter id="b"><feGaussianBlur stdDeviation="12" /></filter><path fill="#203d81" d="M0 0h2500v1660H0z"/><g filter="url(#b)" transform="translate(4.9 4.9) scale(9.76563)" fill-opacity=".5"><path fill="#37579f" d="M-16-1l92 67L268 0z"/><ellipse fill="#0c266a" rx="1" ry="1" transform="matrix(60.5759 31.45639 -11.9669 23.04479 45.5 76.6)"/><ellipse fill="#00165a" rx="1" ry="1" transform="rotate(69.9 71.9 214) scale(14.62315 61.28469)"/><ellipse fill="#3456a0" rx="1" ry="1" transform="rotate(-115.2 101.2 27) scale(25.88658 34.73403)"/><ellipse fill="#12296a" rx="1" ry="1" transform="matrix(14.76467 -8.18658 34.01177 61.341 142 71.4)"/><ellipse fill="#3b5da7" cx="32" cy="130" rx="20" ry="27"/><path fill="#3f5ca2" d="M175.5 165.5l2-58 29 1-2 58z"/><path fill="#00165d" d="M0 155h80v15H0z"/></g></svg>