<svg xmlns="http://www.w3.org/2000/svg" viewBox="0 0 2500 1406"><filter id="b"><feGaussianBlur stdDeviation="12" /></filter><path fill="#219c9e" d="M0 0h2500v1396H0z"/><g filter="url(#b)" transform="translate(4.9 4.9) scale(9.76563)" fill-opacity=".5"><ellipse fill="#b8fff3" cx="28" rx="113" ry="69"/><ellipse fill="#001d40" rx="1" ry="1" transform="matrix(149.99735 -93.36512 26.49784 42.57056 212.9 108.9)"/><ellipse fill="#11cfc0" rx="1" ry="1" transform="matrix(-21.23006 -29.12668 195.21356 -142.28862 29.8 119.1)"/><ellipse fill="#008690" rx="1" ry="1" transform="matrix(-16.54993 -22.56912 142.7017 -104.64312 205 51.6)"/><ellipse fill="#002f4a" rx="1" ry="1" transform="matrix(94.2827 -52.04685 22.97428 41.61783 230.8 141.9)"/><ellipse fill="#b8e3dc" rx="1" ry="1" transform="matrix(-46.96073 17.52905 -6.58962 -17.65374 69.4 9)"/><ellipse fill="#3cc4b5" rx="1" ry="1" transform="matrix(88.11343 -23.23331 7.05317 26.74947 28 83.9)"/><ellipse fill="#00b3b4" rx="1" ry="1" transform="matrix(99.10769 -79.53567 12.15768 15.14942 194.1 16.6)"/></g></svg>