<svg xmlns="http://www.w3.org/2000/svg" viewBox="0 0 2500 1667"><filter id="b"><feGaussianBlur stdDeviation="12" /></filter><path fill="#1e3879" d="M0 0h2500v1660H0z"/><g filter="url(#b)" transform="translate(4.9 4.9) scale(9.76563)" fill-opacity=".5"><path fill="#70658f" d="M100 110h156v30H100z"/><ellipse fill="#53638b" rx="1" ry="1" transform="rotate(-132.8 49.8 27.7) scale(34.98465 22.44419)"/><path fill="#4667a6" d="M213.3 98.2l-26-35-60 24.5 143 50.3z"/><ellipse fill="#002671" rx="1" ry="1" transform="matrix(-248.38547 -24.15352 4.03312 -41.47505 141.4 23)"/><path fill="#727eb0" d="M204 107h18v43h-18z"/><path fill="#0a216d" d="M172.3 117.8l-67-17.4 87.4-6.6 16.3 14.6z"/><ellipse fill="#5c6e96" cx="10" cy="84" rx="9" ry="22"/><ellipse fill="#044294" rx="1" ry="1" transform="matrix(32.88106 28.78519 -16.54698 18.90147 228.7 82.3)"/></g></svg>