<svg xmlns="http://www.w3.org/2000/svg" viewBox="0 0 2500 1667"><filter id="b"><feGaussianBlur stdDeviation="12" /></filter><path fill="#595f59" d="M0 0h2500v1660H0z"/><g filter="url(#b)" transform="translate(4.9 4.9) scale(9.76563)" fill-opacity=".5"><ellipse fill="#8a919d" rx="1" ry="1" transform="matrix(-143.99133 -3.326 .82228 -35.59858 72.3 34.7)"/><ellipse fill="#49401f" cx="160" cy="147" rx="173" ry="49"/><ellipse fill="#004b92" rx="1" ry="1" transform="rotate(101.1 113.4 100.7) scale(25.79308 90.98586)"/><ellipse fill="#9b744f" rx="1" ry="1" transform="rotate(-42.6 240.3 -76.1) scale(74.05603 17.645)"/><ellipse fill="#044857" rx="1" ry="1" transform="matrix(3.76707 16.73838 -64.97742 14.62354 61 124.6)"/><path fill="#9a7141" d="M192 127l79-36-73-7z"/><ellipse fill="#1c3c59" cx="217" cy="78" rx="86" ry="10"/><ellipse fill="#503f27" rx="1" ry="1" transform="matrix(.02522 -14.45244 52.95927 .09243 111.1 86.3)"/></g></svg>