<svg xmlns="http://www.w3.org/2000/svg" viewBox="0 0 340 225"><filter id="b"><feGaussianBlur stdDeviation="12" /></filter><path fill="#a58255" d="M0 0h340v224H0z"/><g filter="url(#b)" transform="translate(.7 .7) scale(1.32813)" fill-opacity=".5"><ellipse fill="#fff" rx="1" ry="1" transform="rotate(142.9 51.4 36) scale(81.7579 56.04411)"/><ellipse fill="#0f0000" cx="108" cy="140" rx="255" ry="36"/><ellipse fill="#fff" rx="1" ry="1" transform="matrix(57.86132 -24.08534 15.41662 37.03605 110.9 38.4)"/><ellipse fill="#ffdf93" rx="1" ry="1" transform="rotate(139.2 100.7 65.1) scale(32.61034 42.50853)"/><ellipse fill="#ef9814" rx="1" ry="1" transform="matrix(3.44289 -19.12368 77.41733 13.93764 61.2 94)"/><ellipse fill="#010000" cx="178" cy="70" rx="10" ry="31"/><ellipse fill="#d17003" rx="1" ry="1" transform="rotate(-36.8 74.6 -5.5) scale(53.1812 26.49108)"/><ellipse fill="#fff" rx="1" ry="1" transform="rotate(-74.2 88.7 -44.1) scale(21.57679 61.88239)"/></g></svg>