<svg xmlns="http://www.w3.org/2000/svg" viewBox="0 0 340 225"><filter id="c"><feGaussianBlur stdDeviation="55" /></filter><path fill="#978c7a" d="M0 0h340v224H0z"/><g filter='url(#c)' fill-opacity='.5'><ellipse fill="#a5f0ff" fill-opacity=".5" rx="1" ry="1" transform="rotate(90.9 96 130.4) scale(51.92519 338.67186)"/><ellipse fill="#924b00" fill-opacity=".5" rx="1" ry="1" transform="rotate(102.2 1.9 160.7) scale(92.61168 276.00988)"/><ellipse fill="#deffff" fill-opacity=".5" rx="1" ry="1" transform="matrix(-14.7864 40.07804 -133.36972 -49.20544 300 28.6)"/><ellipse fill="#69b6ff" fill-opacity=".5" rx="1" ry="1" transform="matrix(-206.32869 18.05142 -3.8976 -44.5498 87.4 18.6)"/><ellipse fill="#953706" fill-opacity=".5" rx="1" ry="1" transform="rotate(-173.9 122.3 29.4) scale(55.82567 13.56019)"/><ellipse fill="#b06640" fill-opacity=".5" rx="1" ry="1" transform="matrix(-44.11498 17.86812 -10.46609 -25.83995 82.7 90.9)"/><ellipse fill="#a48502" fill-opacity=".5" rx="1" ry="1" transform="matrix(-93.48805 -10.57317 7.08655 -62.65937 50.3 209)"/><ellipse fill="#603216" fill-opacity=".5" rx="1" ry="1" transform="matrix(-58.13304 -43.41641 22.88197 -30.63815 277.3 217.4)"/></g></svg>