<svg xmlns="http://www.w3.org/2000/svg" viewBox="0 0 2500 1667"><filter id="b"><feGaussianBlur stdDeviation="12" /></filter><path fill="#595f59" d="M0 0h2500v1660H0z"/><g filter="url(#b)" transform="translate(4.9 4.9) scale(9.76563)" fill-opacity=".5"><ellipse fill="#8a929d" cx="50" cy="35" rx="168" ry="37"/><ellipse fill="#504628" cx="144" cy="169" rx="112" ry="112"/><ellipse fill="#004a90" rx="1" ry="1" transform="rotate(101.8 108.4 96.8) scale(22.65727 78.96687)"/><ellipse fill="#07393e" rx="1" ry="1" transform="matrix(-93.55968 33.21269 -7.19585 -20.2706 24.6 142.3)"/><ellipse fill="#96704b" rx="1" ry="1" transform="matrix(65.27153 -67.17183 14.95414 14.53108 103.2 158)"/><ellipse fill="#333414" rx="1" ry="1" transform="rotate(-139.7 146 28.5) scale(28.93039 48.74664)"/><path fill="#2c547d" d="M187 89l-81-33 165 17z"/><path fill="#a97c4c" d="M252.3 110.8l-54.7-5.7 2.1-20 54.7 5.8z"/></g></svg>