<svg xmlns="http://www.w3.org/2000/svg" viewBox="0 0 2500 1563"><filter id="c"><feGaussianBlur stdDeviation="55" /></filter><path fill="#292f75" d="M0 0h2500v1562H0z"/><g filter='url(#c)' fill-opacity='.5'><path fill="#505797" fill-opacity=".5" d="M-420.3 1208.3L706 504.5l388.1 621.2-1126.3 703.8z"/><ellipse fill="#00002e" fill-opacity=".5" rx="1" ry="1" transform="matrix(112.72874 628.99422 -200.22112 35.88376 2415.5 386)"/><path fill="#5c56ff" fill-opacity=".5" d="M725.1 134.7l133.5 128.9-285 295-133.4-128.8z"/><ellipse fill="#3a7adb" fill-opacity=".5" rx="1" ry="1" transform="matrix(-87.25022 40.68545 -128.41677 -275.39066 1751 569)"/><path fill="#6e08f8" fill-opacity=".5" d="M2025 230.7l103.2-29.6 153.5 535-103.3 29.6z"/><path fill="#36f3ff" fill-opacity=".5" d="M1340.4 458.3l-153.7 189.8-75.9-61.5 153.7-189.7z"/><path fill="#4d59fd" fill-opacity=".5" d="M2133.8 1225.6l517.6-244.2-380.9 439.5z"/><path fill="#57a8e3" fill-opacity=".5" d="M1097.7 920.8l84.9 22.7-141.6 528.3-84.9-22.8z"/></g></svg>