<svg xmlns="http://www.w3.org/2000/svg" viewBox=".5 .5 187.5 186.759"><g fill="#0b1761"><path d="M147.204 13.073l1.373-3.05 1.038.466.256-.57-2.8-1.262-.257.572 1.037.467-1.373 3.05zM149.363 14.05l1.433-2.933.016-.005-.477 3.414.686.334 2.399-2.477.01.005-1.438 2.946.687.334 1.742-3.57-1.147-.557-2.17 2.29-.01-.006.472-3.12-1.145-.56-1.741 3.57zM187.794 98.395c-1.616-23.134-12.567-43.389-28.916-57.353l-.08.093c13.588 13.65 22.528 32.056 23.978 52.775 3.196 45.762-31.301 85.456-77.067 88.656-21.51 1.507-41.675-5.324-57.341-17.734l-.083.094c16.257 15.16 38.518 23.799 62.446 22.128 45.76-3.204 80.266-42.895 77.063-88.659zM18.697 128.489c-1.553.617-2.578 1.79-3.01 3.565-.442 1.585-.324 3.176.352 6.869l.3 1.444c.701 3.757.416 5.204-1.258 5.871-2.091.835-4.052-.516-5.297-3.637-1.362-3.419-.762-5.641 1.873-7.112l-1.103-2.758c-3.968 1.773-5.07 5.606-3.011 10.764 1.904 4.765 5.295 6.84 8.819 5.433 1.554-.621 2.531-1.735 2.895-3.252.278-1.215.22-2.22-.264-5.077l-.254-1.422-.263-1.608c-.672-3.848-.236-5.544 1.586-6.272 2.264-.906 4.426.596 5.781 3.977 1.65 4.14.87 7.043-2.227 8.397l1.114 2.792c4.455-1.855 5.682-6.156 3.399-11.874-2.113-5.29-5.667-7.604-9.432-6.1zM22.273 111.297l-7.493.168-3.464-3.817 10.678-8.839-.087-3.926-12.6 10.618L.5 95.75l.09 4.07 10.941 11.75-10.677.205.069 3.077 21.419-.477zM26.026 78.133l1.02-2.904-8.256-2.899-8.826-12.569-1.18 3.372c2.502 3.21 4.71 6.656 7.312 9.787L4.22 76.156l-1.244 3.539 14.799-4.462zM25.507 42.512l13.517 11.066 3.248-3.971-13.513-11.064 4.529-5.533-3.063-2.504-12.286 15 3.062 2.508zM71.23 27.659l-1.999-3.416-11.024 6.447-2.664-4.553 9.923-5.805-1.849-3.165-9.927 5.805-2.308-3.944 10.812-6.323-1.993-3.415-15.246 8.914 10.818 18.492zM91.013.519l-5.261.845-5.637 23.425 5.324-1.378 1.221-5.26 8.612-1.379 2.787 4.604 5.606-.345zm-1.91 5.104l4.415 7.955-6.2 1.002c.64-2.98 1.346-5.94 1.785-8.957zM120.215 15.306c.853-3.37 1.137-4.593 1.769-7.42l.534-2.586c-.012 1.16-.02 2.022.014 2.597.028.706.097 1.72.173 3.074.071 1.013.123 1.762.209 2.28l1.22 10.235 3.902 1.026 6.08-8.514c.368-.536.83-1.182 1.32-1.95 1.157-1.756 1.659-2.523 2.92-4.685l-.51 1.53c-.282.922-.557 1.815-.823 2.679a80.042 80.042 0 0 0-.901 3.156 110.98 110.98 0 0 0-.84 3.07l-1.714 6.367 4.509 1.717 5.565-20.897-6.834-2.321-5.64 8.095c-.488.74-1.034 1.558-1.653 2.528-.93 1.45-1.22 1.975-2.03 3.554.099-2.767.062-4.705-.205-7.036l-1.014-9.911L119.053.5l-5.358 20.959 4.738.744z"/><path d="M121.453 57.766c-7.236-.054-15.881 3.979-24.333 11.368-2.608 2.278-7.742 7.22-12.715 11.994l-5.637 5.386c-4.603-.836-9.137-1.22-13.81-1.22-10.442 0-20.015 2.884-24.365 7.327-1.666 1.705-2.48 3.533-2.443 5.48.11 5.042 5.908 7.605 7.673 8.268 9.266 3.462 17.04 2.457 25.21-3.257 4.52-3.163 9.927-8.249 14.155-12.307l14.782 4.008c-4.806 4.717-9.731 9.707-14.312 13.748l-.345.314c-6.365 5.616-10.984 9.67-17.63 11.148-4.682 1.04-7.987.043-9.083-.626-.093.015-.25.22-.25.22 3.848 3.164 7.48 4.958 13.748 4.415 5.968-.518 12.862-4.272 19.917-10.867l9.52-9.332 6.67-6.64c4.56 1.388 9.159 2.657 13.718 4.04-.147.002-8.33 8.111-8.33 8.111l-7.172 7.11c-7.334 7.13-11.344 10.838-15.627 13.873-7.095 5.028-13.15 7.63-18.508 7.985-2.763.186-6.75.016-10.084-1.941-.148-.028-.345.156-.345.156 3.616 3.113 8.049 6.79 15.69 6.577 8.645-.244 16.299-4.396 28.216-15.345 5.436-4.987 10.832-10.58 15.596-15.502l8.863-8.957c5.835 1.298 11.026 1.805 16.785 1.691 8.401-.164 15.568-4.179 15.659-8.768.07-3.394-2.718-5.216-4.385-6.295-1.374-.898-5.116-2.975-10.303-2.975-6.29 0-12.858 2.795-19.51 8.267l-4.447 3.884-13.936-3.884c3.634-3.397 6.728-6.318 9.52-8.8 6.74-5.997 14.215-8.453 18.571-8.737 3.17-.206 8.712.079 10.992 1.691.101-.02.25-.25.25-.25-6.067-5.192-11.32-5.888-15.658-5.888-4.26 0-11.105 1.368-19.479 7.86-3.423 2.648-7.883 7.058-12.526 11.744a1621.519 1621.519 0 0 0-14.28-4.353c.148-.006 3.726-3.538 3.726-3.538 4.414-4.332 8.584-8.408 11.838-11.15 11.827-9.944 19.286-11.25 24.458-11.273 5.67-.021 10.157 1.148 13.372 3.476.1-.017.25-.25.25-.25-6.643-6.01-11.418-7.918-19.666-7.986zM68.59 88.895a48.602 48.602 0 0 1 2.13 0c1.51.024 3.242.14 5.324.375-.17.011-2.443 2.067-2.443 2.067l-1.347 1.222c-5.186 4.696-13.825 12.55-21.577 12.025-3.841-.26-5.73-1.82-5.73-4.76 0-.397.251-9.756 21.733-10.836.613-.03 1.242-.074 1.91-.093zm82.896 1.816c.214-.011.395-.007.595 0 1.9.069 4.165.639 4.165 2.975 0 2.393-2.281 4.42-6.765 6.013-3.924 1.402-9.933 1.743-16.504 1.002 1.811-1.635 3.317-2.86 4.604-3.727 5.79-3.897 10.689-6.095 13.905-6.263z"/></g></svg>