<svg xmlns="http://www.w3.org/2000/svg" viewBox="0 0 981 996"><filter id="b"><feGaussianBlur stdDeviation="12" /></filter><path fill="#0e0d0d" d="M0 0h984v996H0z"/><g filter="url(#b)" transform="translate(2 2) scale(3.89063)" fill-opacity=".5"><ellipse fill="#708086" rx="1" ry="1" transform="matrix(5.44823 11.07227 -43.37535 21.34332 90.4 46)"/><ellipse fill="#f6fffd" cx="95" cy="205" rx="11" ry="11"/><path fill="#dfddde" d="M219.7 160.8l25.7 17.6-51.7-26.6 21-8.9z"/><ellipse fill="#c4b0a7" cx="38" cy="122" rx="12" ry="11"/><path fill="#8a746d" d="M214 151L184 41l30 50z"/><path fill="#b08f7a" d="M128 249.7l-11-46.1 18.9-3.2-5.8 36.1z"/><path fill="#949597" d="M179 1l-27 53-4-19z"/><path fill="#e77169" d="M196.4 68.1l-20 .7-.8-21 20-.6z"/></g></svg>